<?xml version="1.0" encoding="UTF-8"?>
<svg width="430px" height="430px" viewBox="0 0 430 430" version="1.1" xmlns="http://www.w3.org/2000/svg" xmlns:xlink="http://www.w3.org/1999/xlink">
    <!-- Generator: Sketch 48.1 (47250) - http://www.bohemiancoding.com/sketch -->
    <title>defenderboys_logo</title>
    <desc>Created with Sketch.</desc>
    <defs></defs>
    <g id="Page-1" stroke="none" stroke-width="1" fill="none" fill-rule="evenodd">
        <g id="defenderboys_logo" transform="translate(2.000000, -2.000000)">
            <path d="M425.11,217.446 C425.11,334.836 329.946,430 212.555,430 C95.164,430 0,334.836 0,217.446 C0,100.055 95.164,4.891 212.555,4.891 C329.946,4.891 425.11,100.055 425.11,217.446 Z" id="Stroke-1" stroke="#000206" stroke-width="4"></path>
            <path d="M345.374,220.469 C345.374,293.838 285.897,353.316 212.528,353.316 C139.158,353.316 79.681,293.838 79.681,220.469 C79.681,147.1 139.158,87.622 212.528,87.622 C285.897,87.622 345.374,147.1 345.374,220.469" id="Fill-3" fill="#000206"></path>
            <path d="M345.374,220.469 C345.374,293.838 285.897,353.316 212.528,353.316 C139.158,353.316 79.681,293.838 79.681,220.469 C79.681,147.1 139.158,87.622 212.528,87.622 C285.897,87.622 345.374,147.1 345.374,220.469 Z" id="Stroke-4" stroke="#000206"></path>
            <path d="M230.786,275.785 C226.638,279.034 223.797,282.564 224.579,287.85 C224.865,289.782 225.439,291.691 226.067,293.547 C228.594,301.014 230.889,308.492 228.364,317.045 C230.712,315.571 232.564,314.524 234.291,313.301 C239.914,309.322 241.211,304.584 238.235,298.298 C236.834,295.343 235.048,292.571 233.454,289.706 C231.1,285.475 229.469,281.086 230.786,275.785 Z M196.31,316.991 C194.744,311.139 194.956,305.885 196.45,300.678 C197.6,296.669 198.974,292.719 199.969,288.673 C201.171,283.788 198.514,278.464 194.045,276.272 C195.106,280.519 194.055,284.422 192.094,288.124 C190.485,291.165 188.598,294.059 187.039,297.123 C183.257,304.552 184.534,309.348 191.394,313.956 C192.813,314.909 194.304,315.757 196.31,316.991 Z M178.817,308.127 C180.588,303.927 182.287,299.551 184.268,295.306 C185.857,291.903 187.894,288.71 189.535,285.328 C190.886,282.541 191.696,279.395 190.232,276.549 C187.907,272.027 185.092,267.756 182.484,263.379 C181.79,266.123 181.989,268.632 181.198,270.778 C178.859,277.121 176.257,283.376 173.509,289.555 C171.65,293.732 171.674,297.626 174.166,301.437 C175.733,303.832 177.432,306.142 178.817,308.127 Z M242.984,263.72 C242.752,263.603 242.521,263.487 242.289,263.37 C239.752,267.539 236.94,271.573 234.806,275.938 C233.896,277.8 233.778,280.549 234.404,282.55 C235.511,286.096 237.305,289.464 239.097,292.751 C241.834,297.772 244.62,302.739 245.335,308.943 C247.23,306.243 248.97,303.89 250.574,301.448 C253.075,297.637 253.252,293.669 251.207,289.57 C249.528,286.202 247.868,282.82 246.321,279.388 C244.082,274.42 242.509,269.284 242.984,263.72 Z M221.108,148.282 C225.003,147.959 228.782,147.675 232.551,147.294 C233.001,147.249 233.533,146.768 233.801,146.345 C240.292,136.123 250.051,130.988 261.509,128.482 C262.796,128.201 264.085,127.927 265.603,127.601 C258.121,121.985 249.008,120.692 241.177,124.325 C230.681,129.194 225.096,138.232 221.108,148.282 Z M159.301,127.517 C159.642,127.702 159.776,127.818 159.927,127.848 C160.408,127.944 160.898,127.993 161.38,128.084 C172.142,130.122 181.828,134.288 188.619,143.244 C190.771,146.083 192.652,147.73 196.421,147.381 C198.719,147.168 201.135,148.23 203.786,148.779 C200.217,139.452 195.318,131.47 186.95,126.122 C178.197,120.529 167.464,121.106 159.301,127.517 Z M163.798,179.854 C162.895,179.319 162.766,179.184 162.623,179.168 C162.054,179.104 161.48,179.045 160.908,179.043 C152.952,179.022 145.232,180.32 137.924,183.526 C129.39,187.271 122.533,192.874 118.783,201.683 C118.156,203.154 117.772,204.728 117.069,206.891 C127.029,198.215 137.88,193.55 150.313,192.56 C151.712,192.448 153.549,192.25 154.364,191.35 C157.637,187.734 160.587,183.827 163.798,179.854 Z M307.349,206.669 C305.075,190.243 279.579,175.134 261.416,179.469 C263.562,183.809 266.392,187.562 269.78,190.884 C270.522,191.612 271.663,192.129 272.701,192.329 C276.715,193.099 280.826,193.44 284.782,194.419 C293.273,196.52 300.694,200.773 307.349,206.669 Z M114.84,200.998 C115.036,200.671 115.252,200.355 115.422,200.017 C120.51,189.875 128.684,183.301 139.236,179.54 C146.89,176.812 154.835,175.875 162.928,175.896 C163.802,175.898 165.083,175.696 165.475,175.116 C166.719,173.275 167.63,171.21 168.757,169.066 C158.952,166.261 149.398,164.087 139.502,163.752 C133.191,163.539 127.986,165.827 124.601,171.169 C122.166,175.014 120.034,179.125 118.342,183.347 C116.102,188.936 114.917,194.85 114.84,200.998 Z M310.572,200.814 C309.775,196.828 309.14,192.789 308.14,188.842 C306.439,182.131 303.972,175.728 299.523,170.271 C296.619,166.708 293.142,163.884 288.33,164.044 C282.542,164.237 276.727,164.621 271.004,165.468 C265.959,166.214 261.026,167.713 255.856,168.923 C257.007,171.085 257.827,172.885 258.903,174.515 C259.343,175.181 260.314,175.815 261.092,175.883 C264.438,176.172 267.819,176.084 271.157,176.427 C282.064,177.549 292.293,180.683 300.385,188.413 C304.166,192.026 307.1,196.527 310.572,200.814 Z M212.317,326.911 C214.888,324.155 217.41,321.116 220.281,318.453 C224.911,314.158 225.972,308.999 225.107,302.994 C224.099,296.002 220.429,289.518 221.594,281.869 C219.537,282.862 217.871,283.545 216.327,284.44 C213.694,285.964 211.167,286.03 208.508,284.49 C206.902,283.559 205.155,282.869 203.752,282.205 C203.2,285.837 202.769,289.39 202.09,292.894 C201.592,295.458 200.714,297.947 200.098,300.492 C198.307,307.898 199.344,314.407 205.613,319.611 C208.168,321.732 210.163,324.528 212.317,326.911 Z M121.681,245.83 C127.944,244.078 131.55,239.967 133.904,234.669 C136.981,227.747 141.767,222.241 147.45,217.376 C149.564,215.567 151.61,213.634 153.424,211.531 C155.281,209.379 156.395,206.814 155.887,203.827 C155.515,201.647 155.066,199.479 154.755,197.291 C154.555,195.883 153.829,195.277 152.462,195.36 C150.581,195.475 148.693,195.543 146.82,195.741 C136.504,196.829 127.579,204.233 125.201,214.221 C124.244,218.241 124.044,222.495 123.945,226.653 C123.791,233.038 124.168,239.447 121.681,245.83 Z M302.769,245.827 C302.241,243.188 301.464,240.737 301.31,238.248 C300.97,232.764 300.956,227.26 300.788,221.765 C300.316,206.386 289.436,195.622 274.079,195.326 C270.35,195.254 270.362,195.256 269.795,198.883 C269.606,200.096 269.445,201.33 269.086,202.498 C268.225,205.31 268.761,207.925 270.379,210.213 C271.693,212.07 273.21,213.873 274.954,215.32 C282.056,221.218 288.029,227.914 291.796,236.5 C293.866,241.218 297.68,244.296 302.769,245.827 Z M132.881,160.354 C133.993,160.628 134.218,160.733 134.443,160.732 C145.943,160.689 157.085,162.718 168.07,166.072 C171.126,167.005 174.033,164.851 176.916,163.799 C177.237,163.682 177.433,162.989 177.532,162.529 C179.139,155.1 173.831,145.021 166.813,142.131 C158.758,138.814 152.189,143.759 153.177,152.405 C153.343,153.861 153.574,155.309 153.775,156.761 C150.96,153.134 149.044,149.211 148.947,144.629 C148.849,140.014 150.809,137.142 155.26,135.843 C157.263,135.258 159.517,134.846 161.542,135.142 C171.516,136.6 179.339,141.468 184.396,150.391 C184.575,150.706 184.809,150.991 185.05,151.339 C186.332,150.453 187.45,149.679 188.589,148.892 C188.216,148.03 187.996,147.416 187.696,146.846 C182.617,137.193 167.225,129.219 156.452,130.729 C150.43,131.574 146.305,134.912 144.69,140.797 C144.037,143.18 144.008,145.807 144.124,148.303 C144.204,150.015 143.981,150.991 142.475,152.111 C139.277,154.491 136.392,157.291 132.881,160.354 Z M290.985,160.636 C291.12,160.443 291.255,160.25 291.39,160.057 C288.562,157.524 285.907,154.75 282.841,152.546 C280.88,151.135 280.398,149.866 280.752,147.558 C282.136,138.543 275.637,130.783 266.565,130.654 C254.475,130.483 245.247,136.112 237.958,145.358 C237.176,146.351 236.717,147.6 236.039,148.858 C237.396,149.775 238.527,150.539 239.801,151.399 C240.176,150.681 240.426,150.095 240.766,149.567 C246.524,140.622 254.629,135.487 265.329,135.084 C270.815,134.877 275.068,138.038 275.652,142.355 C276.396,147.855 274.162,152.531 270.946,157.434 C271.213,154.832 271.602,152.812 271.597,150.793 C271.581,144.342 267.681,140.386 261.871,141.275 C259.379,141.657 256.688,142.621 254.711,144.135 C248.871,148.609 246.53,154.849 247.229,162.123 C247.316,163.025 248.481,164.087 249.409,164.58 C250.598,165.21 252.041,165.401 253.398,165.663 C254.581,165.891 255.862,166.273 256.987,166.041 C264.189,164.553 271.32,162.689 278.556,161.413 C282.618,160.696 286.836,160.866 290.985,160.636 Z M153.162,299.632 C156.2,297.822 159.163,296.494 161.61,294.524 C172.763,285.55 178.241,273.617 178.77,259.473 C178.995,253.469 177.447,247.789 173.348,243.029 C172.588,242.147 171.959,240.705 172.068,239.599 C172.513,235.075 173.267,230.581 173.944,225.818 C172.427,224.564 170.479,222.954 168.522,221.336 C168.428,221.416 168.282,221.494 168.204,221.615 C168.026,221.888 167.882,222.182 167.725,222.468 C161.705,233.403 160.038,245.157 161.131,257.435 C161.912,266.199 162.633,275.024 159.836,283.539 C158.093,288.849 155.57,293.903 153.162,299.632 Z M250.8,225.791 C251.467,230.698 252.18,235.286 252.646,239.898 C252.743,240.861 252.161,242.116 251.493,242.894 C248.387,246.511 246.581,250.679 246.208,255.373 C245.047,269.98 250.227,282.223 260.505,292.412 C263.648,295.527 267.361,297.86 272.008,299.268 C271.558,298.415 271.326,297.903 271.033,297.429 C264.746,287.249 262.321,276.236 263.134,264.281 C263.651,256.691 263.701,249.017 263.218,241.428 C262.758,234.195 259.875,227.546 256.315,221.221 C254.206,222.968 252.259,224.582 250.8,225.791 Z M154.426,288.995 C154.742,288.728 154.901,288.649 154.973,288.522 C155.134,288.24 155.258,287.936 155.385,287.636 C159.206,278.637 159.078,269.252 158.051,259.795 C157.326,253.116 156.255,246.493 157.71,239.732 C159.173,232.933 161.69,226.592 164.884,220.464 C165.25,219.763 165.65,218.522 165.317,218.104 C162.935,215.121 160.368,212.286 158.306,209.918 C154.943,213.617 151.741,217.199 148.468,220.714 C146.847,222.455 145.013,223.999 143.418,225.761 C136.271,233.659 134.509,242.833 137.075,253.015 C138.419,258.353 141.646,262.589 145.017,266.736 C149.204,271.889 152.684,277.387 153.79,284.085 C154.051,285.665 154.204,287.262 154.426,288.995 Z M266.99,209.191 C264.423,212.158 262.056,214.771 259.869,217.526 C259.418,218.093 259.316,219.327 259.607,220.022 C260.68,222.584 262.095,225.003 263.183,227.56 C266.872,236.226 268.477,245.143 267.384,254.655 C266.564,261.784 266.444,269.024 266.492,276.212 C266.521,280.671 267.895,284.991 270.203,289.416 C270.4,288.383 270.57,287.832 270.602,287.272 C270.993,280.48 273.698,274.618 277.775,269.3 C279.671,266.826 281.664,264.419 283.447,261.866 C288.683,254.359 290.036,246.053 287.836,237.266 C286.159,230.563 281.755,225.549 276.692,221.109 C272.845,217.735 269.297,214.145 266.99,209.191 Z M187.032,252.806 C183.798,260.898 188,266.289 193.996,270.633 C199.029,274.281 204.458,277.38 209.696,280.749 C211.573,281.955 213.376,281.805 215.189,280.653 C220.306,277.4 225.522,274.289 230.499,270.834 C232.686,269.317 234.534,267.228 236.278,265.179 C238.792,262.223 239.217,258.698 238.363,254.977 C238.188,254.218 238.056,253.45 237.852,252.42 C241.658,252.409 243.24,250.08 244.529,247.118 C245.294,245.357 246.765,243.91 247.841,242.271 C248.315,241.548 249.009,240.635 248.898,239.919 C248.308,236.129 247.712,232.314 246.698,228.623 C245.593,224.603 245.993,223.461 249.605,221.187 C252.15,219.584 254.561,217.708 256.807,215.703 C262.63,210.506 265.085,203.472 267.181,196.237 C267.748,194.28 267.522,192.93 266.028,191.454 C264.417,189.862 262.954,188.018 261.835,186.052 C259.204,181.426 256.694,176.72 254.379,171.927 C253.306,169.704 251.768,168.804 249.455,168.654 C246.377,168.455 244.31,166.816 243.105,163.979 C242.241,161.945 241.32,159.93 240.31,157.964 C236.79,151.107 231.479,148.72 224.229,151.157 C221.252,152.157 218.49,153.897 215.767,155.529 C211.471,158.104 213.241,157.976 209.02,155.599 C205.699,153.729 202.266,151.919 198.672,150.704 C193.901,149.09 189.63,150.618 186.718,154.689 C184.739,157.456 183.219,160.591 181.787,163.696 C180.418,166.664 178.413,168.522 175.11,168.671 C172.824,168.774 171.592,169.915 170.391,171.851 C166.05,178.847 163.799,187.123 157.536,192.958 C157.162,193.307 157.188,194.32 157.332,194.955 C159.961,206.543 165.239,216.254 176.34,221.909 C178.593,223.057 179.113,225.072 178.322,227.612 C177.835,229.175 177.189,230.717 176.941,232.319 C176.245,236.808 174.602,241.486 179.108,245.166 C179.819,245.746 180.295,246.778 180.573,247.694 C181.394,250.402 183.083,251.978 185.911,252.324 C186.213,252.36 186.494,252.568 187.032,252.806 Z" id="Fill-5" fill="#FFFFFE"></path>
            <path d="M238.243,115.812 C239.898,116.206 241.553,116.6 243.437,117.049 C242.994,117.421 242.687,117.758 242.313,117.981 C229.785,125.45 221.6,136.436 216.66,149.956 C215.954,151.889 214.712,152.906 213.13,153.754 C211.743,154.498 208.999,152.584 208.254,150.4 C205.35,141.887 200.928,134.218 194.615,127.847 C190.673,123.87 186.088,120.529 181.824,116.93 C183.124,116.618 184.801,116.215 186.477,115.812 C188.449,115.812 190.421,115.812 192.393,115.812 C199.196,117.022 205.47,119.614 211.445,123.026 C211.914,123.294 212.804,123.294 213.274,123.026 C219.247,119.609 225.528,117.035 232.327,115.812 C234.299,115.812 236.271,115.812 238.243,115.812" id="Fill-6" fill="#FFFFFE"></path>
            <path d="M179.201,234.688 C178.5,237.208 178.462,239.255 180.556,241.062 C181.663,242.017 182.325,243.531 182.908,244.867 L183.057,245.207 C184.297,248.024 185.028,248.753 186.613,248.753 C187.228,248.753 188.015,248.634 189.089,248.38 C195.027,246.972 199.902,245.655 204.429,244.234 C210.154,242.437 211.329,240.293 209.668,234.678 C208.875,231.997 207.4,228.368 203.75,227.814 C198.368,226.998 196.547,223.12 194.786,219.369 C194.6,218.974 194.414,218.579 194.224,218.185 L192.876,215.399 L198.684,221.376 C200.486,219.583 201.383,218.759 202.58,218.759 C203.601,218.759 204.648,219.394 206.548,220.546 L206.674,220.624 C207.973,221.411 209.24,222.124 210.462,222.216 C210.998,222.257 211.534,222.281 212.065,222.281 C215.243,222.281 217.658,221.463 219.664,219.708 C220.451,219.021 221.264,218.672 222.083,218.672 C223.144,218.672 224.169,219.272 225.048,220.408 C225.303,220.737 225.491,221.097 225.707,221.514 C225.718,221.534 225.728,221.554 225.739,221.574 L230.784,216.266 L230.425,217.985 C229.585,222.022 226.121,226.879 222.741,227.339 C218.996,227.85 217.102,230.174 215.408,233.507 C214.206,235.874 213.951,238.09 214.669,239.917 C215.362,241.676 216.96,243.058 219.291,243.912 C223.436,245.431 226.841,246.51 230.006,247.308 C231.952,247.798 234.017,248.026 236.013,248.247 C236.74,248.327 237.465,248.407 238.188,248.499 C238.342,248.518 238.49,248.528 238.63,248.528 C239.736,248.528 240.466,247.934 241.235,246.411 C241.952,244.991 242.804,243.623 243.628,242.298 C244.167,241.433 244.707,240.567 245.212,239.682 C245.596,239.013 246.086,238.158 245.992,237.614 C245.476,234.631 244.845,231.17 243.891,227.834 C243.272,225.673 242.548,223.095 241.826,220.52 C240.737,216.636 239.61,212.621 238.886,210.207 C238.856,210.106 238.786,209.872 238.946,209.656 L239.096,209.455 L239.352,209.452 C239.746,209.452 239.746,209.452 241.86,213.375 C242.795,215.113 243.841,217.053 244.586,218.321 C252.392,212.083 256.461,206.242 252.921,196.799 L252.13,194.691 L253.739,196.266 C257.071,199.53 257.385,203.351 257.718,207.396 C257.745,207.713 257.771,208.033 257.798,208.354 C258.219,207.744 258.629,207.161 259.027,206.595 C260.405,204.637 261.595,202.946 262.538,201.113 C263.737,198.786 264.901,196.095 263.534,193.615 C259.789,186.828 255.848,180.262 252.131,174.119 C251.739,173.47 250.754,172.824 249.841,172.614 C245.717,171.67 241.284,169.929 239.669,164.169 C239.168,162.382 238.232,159.88 236.612,158.112 C234.098,155.367 230.986,153.916 227.612,153.916 C224.372,153.916 221.11,155.262 218.178,157.809 C215.113,160.471 213.699,161.647 212.291,161.648 C211.136,161.648 210.171,160.85 208.573,159.528 C208.002,159.056 207.34,158.509 206.547,157.894 C204.002,155.921 201.147,154.623 198.713,154.332 C197.883,154.233 197.087,154.183 196.348,154.183 C190.587,154.183 187.207,157.165 185.049,164.154 C183.264,169.939 178.921,171.676 174.909,172.613 C173.988,172.828 172.95,173.56 172.495,174.317 C168.599,180.8 165.143,186.781 161.928,192.601 C161.191,193.937 160.798,195.563 160.904,196.845 C161.213,200.601 163.298,203.378 165.713,206.593 C166.126,207.144 166.548,207.706 166.968,208.284 C166.995,207.95 167.018,207.618 167.042,207.29 C167.329,203.336 167.601,199.603 170.568,196.697 L171.758,195.531 L171.406,197.16 C169.122,207.73 171.159,210.893 180.21,218.213 L186.687,207.766 L179.201,234.688 Z M197.192,264.015 C198.099,265.207 198.966,266.371 199.814,267.506 C201.631,269.944 203.347,272.246 205.175,274.457 C207.482,277.25 209.901,278.666 212.364,278.666 C214.845,278.666 217.278,277.231 219.595,274.399 C221.411,272.179 223.123,269.876 224.938,267.438 C225.785,266.3 226.652,265.134 227.559,263.937 L228.943,262.111 L227.065,270.552 L227.162,270.636 C227.679,270.066 228.203,269.5 228.726,268.935 C230.103,267.447 231.527,265.908 232.803,264.307 C235.731,260.634 235.533,257.473 232.161,254.058 C227.204,249.039 220.849,247.671 214.718,246.941 C213.946,246.849 213.144,246.802 212.336,246.802 C208.687,246.802 205.102,247.743 201.445,248.791 C197.204,250.006 193.794,252.36 191.022,255.988 C189.632,257.807 189.437,259.874 190.457,261.968 C191.972,265.076 194.465,267.269 197.352,269.808 C197.417,269.866 197.482,269.922 197.547,269.98 L195.82,262.249 L197.192,264.015 Z M212.325,282.087 C211.349,282.087 210.374,281.779 209.426,281.169 C207.712,280.067 205.977,278.994 204.243,277.92 C200.732,275.748 197.102,273.5 193.704,271.039 C188.954,267.598 183.079,262.011 186.399,253.058 C186.371,253.043 186.342,253.029 186.316,253.015 C186.108,252.91 185.957,252.833 185.85,252.82 C182.884,252.458 181.001,250.828 180.095,247.839 C179.777,246.791 179.314,245.979 178.791,245.553 C174.656,242.175 175.41,238.032 176.138,234.025 C176.246,233.429 176.355,232.834 176.447,232.243 C176.63,231.054 177.025,229.901 177.407,228.786 C177.556,228.345 177.706,227.906 177.844,227.464 C178.61,225.009 178.043,223.338 176.114,222.355 C166.025,217.216 159.903,208.544 156.845,195.065 C156.829,194.993 156.452,193.287 157.196,192.592 C161.244,188.821 163.645,183.894 165.968,179.129 C167.196,176.611 168.464,174.007 169.966,171.587 C171.186,169.622 172.524,168.288 175.088,168.172 C177.934,168.043 179.918,166.554 181.332,163.487 C182.731,160.457 184.266,157.258 186.312,154.398 C188.571,151.241 191.582,149.571 195.022,149.571 C196.258,149.571 197.54,149.793 198.832,150.23 C202.513,151.475 206.022,153.337 209.265,155.164 C210.08,155.623 210.675,155.999 211.133,156.289 C211.757,156.683 212.133,156.921 212.376,156.921 C212.641,156.921 213.055,156.654 213.805,156.169 C214.243,155.887 214.792,155.531 215.511,155.101 L216.231,154.668 C218.724,153.166 221.303,151.613 224.07,150.683 C225.954,150.049 227.747,149.728 229.398,149.728 C234.206,149.728 238.028,152.422 240.755,157.736 C241.691,159.558 242.61,161.536 243.565,163.784 C244.739,166.543 246.675,167.973 249.488,168.155 C252.077,168.323 253.724,169.419 254.83,171.709 C257.017,176.238 259.45,180.848 262.27,185.805 C263.319,187.647 264.74,189.477 266.379,191.098 C267.932,192.632 268.303,194.162 267.663,196.375 C265.623,203.413 263.131,210.729 257.14,216.076 C254.726,218.232 252.28,220.094 249.871,221.61 C246.476,223.748 246.124,224.648 247.181,228.491 C248.206,232.225 248.809,236.097 249.392,239.842 C249.52,240.667 248.943,241.526 248.434,242.283 L248.259,242.545 C247.856,243.16 247.398,243.749 246.955,244.318 C246.181,245.315 245.45,246.256 244.987,247.318 C243.867,249.893 242.344,252.633 238.454,252.899 L238.524,253.257 C238.636,253.848 238.734,254.359 238.85,254.865 C239.818,259.079 239.08,262.658 236.659,265.503 C234.907,267.562 233.01,269.702 230.785,271.246 C227.247,273.7 223.536,276.016 219.946,278.256 C218.447,279.192 216.948,280.127 215.457,281.075 C214.4,281.747 213.346,282.087 212.325,282.087 Z" id="Fill-7" fill="#1A1919"></path>
            <path d="M196.724,268.587 C194.288,266.424 192.209,264.422 190.907,261.749 C189.975,259.836 190.152,257.949 191.419,256.291 C194.124,252.751 197.449,250.456 201.582,249.271 C205.203,248.234 208.75,247.302 212.335,247.302 C213.123,247.302 213.906,247.348 214.66,247.438 C220.7,248.157 226.957,249.5 231.804,254.409 C235.003,257.649 235.186,260.516 232.412,263.995 C231.147,265.582 229.729,267.115 228.358,268.596 C228.206,268.76 228.054,268.924 227.903,269.088 L229.929,259.982 L227.161,263.635 C226.252,264.832 225.385,265.999 224.538,267.138 C222.727,269.572 221.017,271.871 219.207,274.082 C216.99,276.792 214.688,278.166 212.364,278.166 C210.057,278.166 207.768,276.812 205.56,274.139 C203.74,271.935 202.027,269.638 200.213,267.206 C199.366,266.069 198.498,264.906 197.59,263.712 L194.821,260.073 L196.724,268.587 Z M212.291,162.148 C213.876,162.148 215.342,160.933 218.505,158.186 C221.346,155.719 224.495,154.416 227.611,154.416 C230.841,154.416 233.827,155.811 236.243,158.449 C237.796,160.146 238.703,162.57 239.188,164.304 C240.872,170.316 245.462,172.125 249.73,173.102 C250.499,173.277 251.384,173.85 251.704,174.377 C255.424,180.53 259.37,187.102 263.095,193.856 C264.344,196.121 263.233,198.671 262.094,200.884 C261.166,202.685 259.987,204.362 258.621,206.304 C258.475,206.51 258.329,206.719 258.181,206.929 C257.849,202.946 257.435,199.187 254.088,195.909 L250.871,192.758 L252.453,196.975 C255.818,205.951 252.06,211.603 244.726,217.565 C244.019,216.329 243.119,214.658 242.302,213.143 C240.043,208.952 240.043,208.952 239.352,208.952 L238.85,208.952 L238.545,209.357 C238.338,209.635 238.292,209.969 238.407,210.35 C239.131,212.764 240.259,216.787 241.35,220.677 C242.071,223.246 242.792,225.816 243.41,227.972 C244.359,231.287 244.986,234.731 245.499,237.699 C245.562,238.064 245.07,238.924 244.806,239.387 L244.779,239.434 C244.28,240.307 243.734,241.184 243.204,242.033 C242.374,243.366 241.515,244.745 240.788,246.186 C240.011,247.727 239.408,248.028 238.63,248.028 C238.509,248.028 238.383,248.02 238.251,248.002 C237.525,247.91 236.794,247.83 236.064,247.749 C234.085,247.531 232.038,247.304 230.128,246.823 C226.988,246.032 223.598,244.958 219.463,243.443 C217.27,242.639 215.773,241.357 215.135,239.734 C214.47,238.044 214.718,235.969 215.854,233.733 C217.522,230.449 219.267,228.317 222.808,227.835 C226.495,227.333 230.038,222.295 230.914,218.087 L231.63,214.649 L225.854,220.727 C225.73,220.509 225.6,220.303 225.444,220.101 C224.209,218.507 222.935,218.172 222.083,218.172 C221.14,218.172 220.215,218.562 219.335,219.332 C217.425,221.002 215.115,221.78 212.066,221.78 C211.573,221.78 211.045,221.759 210.499,221.718 C209.386,221.633 208.178,220.95 206.934,220.196 L206.806,220.118 C204.829,218.92 203.741,218.26 202.58,218.26 C201.28,218.26 200.316,219.063 198.69,220.666 L195.534,217.417 L195.392,217.271 L191.078,212.832 L193.774,218.403 C193.963,218.795 194.148,219.188 194.333,219.582 C196.15,223.451 198.029,227.452 203.675,228.308 C206.273,228.702 207.973,230.71 209.189,234.82 C210.76,240.133 209.704,242.054 204.279,243.756 C199.762,245.174 194.898,246.489 188.974,247.893 C187.938,248.139 187.188,248.253 186.612,248.253 C185.34,248.253 184.747,247.805 183.514,245.004 L183.368,244.67 C182.763,243.285 182.077,241.714 180.883,240.684 C178.981,239.043 179.014,237.225 179.682,234.822 L188.106,204.527 L180.085,217.466 C171.598,210.551 169.706,207.392 171.895,197.266 L172.599,194.008 L170.218,196.34 C167.205,199.291 166.856,202.982 166.569,206.902 C166.416,206.697 166.264,206.495 166.113,206.293 C163.745,203.14 161.7,200.417 161.402,196.804 C161.304,195.615 161.673,194.097 162.366,192.843 C165.573,187.036 169.026,181.061 172.923,174.574 C173.303,173.942 174.245,173.281 175.023,173.099 C179.173,172.13 183.667,170.328 185.527,164.302 C187.609,157.559 190.845,154.682 196.348,154.682 C197.067,154.682 197.844,154.731 198.654,154.828 C200.999,155.108 203.765,156.37 206.241,158.289 C207.026,158.897 207.678,159.437 208.254,159.913 C209.939,161.307 210.956,162.148 212.291,162.148 Z M195.022,149.071 C191.414,149.072 188.261,150.813 185.905,154.107 C183.834,157.002 182.286,160.225 180.878,163.278 C179.532,166.196 177.74,167.552 175.065,167.672 C172.119,167.805 170.669,169.506 169.541,171.324 C168.026,173.766 166.751,176.381 165.518,178.91 C163.109,183.851 160.834,188.518 156.854,192.227 C155.918,193.099 156.309,194.966 156.357,195.176 C159.45,208.812 165.656,217.589 175.886,222.8 C176.956,223.345 178.273,224.406 177.367,227.315 C177.231,227.75 177.083,228.185 176.934,228.619 C176.546,229.756 176.143,230.933 175.953,232.166 C175.862,232.753 175.754,233.343 175.646,233.934 C174.926,237.891 174.11,242.375 178.475,245.94 C178.915,246.299 179.331,247.044 179.617,247.984 C180.572,251.134 182.644,252.927 185.776,253.314 C182.676,262.332 188.603,267.96 193.409,271.444 C196.822,273.916 200.46,276.167 203.978,278.344 C205.683,279.399 207.446,280.49 209.156,281.589 C210.185,282.251 211.251,282.587 212.325,282.587 C213.443,282.587 214.586,282.22 215.725,281.497 C217.213,280.551 218.71,279.617 220.206,278.683 C223.803,276.438 227.522,274.118 231.07,271.656 C233.345,270.078 235.266,267.911 237.039,265.828 C239.569,262.854 240.342,259.128 239.337,254.753 C239.234,254.304 239.146,253.852 239.049,253.342 C242.62,252.866 244.241,250.285 245.446,247.517 C245.882,246.513 246.595,245.595 247.351,244.624 C247.799,244.047 248.263,243.451 248.677,242.82 L248.849,242.562 C249.381,241.769 250.044,240.783 249.886,239.765 C249.301,236.006 248.696,232.119 247.663,228.358 C246.661,224.713 246.914,224.062 250.138,222.033 C252.568,220.503 255.036,218.625 257.473,216.449 C263.563,211.014 266.083,203.622 268.142,196.515 C268.833,194.129 268.412,192.403 266.731,190.742 C265.123,189.154 263.731,187.361 262.704,185.558 C259.893,180.616 257.464,176.016 255.28,171.493 C254.086,169.02 252.31,167.837 249.52,167.656 C246.914,167.487 245.117,166.157 244.025,163.588 C243.065,161.328 242.14,159.339 241.2,157.507 C238.379,152.013 234.409,149.228 229.398,149.228 C227.693,149.228 225.847,149.558 223.91,150.208 C221.091,151.156 218.488,152.724 215.97,154.24 L215.253,154.671 C214.527,155.107 213.975,155.463 213.533,155.75 C213.036,156.071 212.522,156.403 212.371,156.421 C212.25,156.404 211.819,156.13 211.401,155.866 C210.953,155.582 210.338,155.194 209.511,154.728 C206.246,152.889 202.712,151.014 198.993,149.756 C197.649,149.302 196.313,149.071 195.022,149.071 Z M198.372,271.378 C197.773,268.698 197.327,266.698 196.794,264.318 C199.644,268.063 202.098,271.517 204.789,274.776 C207.208,277.704 209.788,279.166 212.364,279.166 C214.96,279.166 217.554,277.682 219.982,274.715 C222.656,271.447 225.108,267.999 227.957,264.239 C227.413,266.686 226.962,268.71 226.512,270.735 C226.743,270.935 226.974,271.135 227.204,271.335 C229.209,269.103 231.327,266.96 233.194,264.619 C236.334,260.679 236.041,257.277 232.516,253.706 C227.633,248.76 221.339,247.226 214.778,246.445 C213.956,246.347 213.143,246.302 212.335,246.302 C208.589,246.302 204.969,247.26 201.307,248.31 C196.798,249.602 193.371,252.09 190.624,255.684 C189.116,257.658 188.906,259.925 190.008,262.187 C191.806,265.876 194.948,268.317 198.372,271.378 Z M212.291,161.148 C210.954,161.148 209.797,159.781 206.853,157.499 C204.559,155.721 201.591,154.172 198.773,153.835 C197.923,153.734 197.115,153.682 196.348,153.682 C190.296,153.682 186.769,156.889 184.572,164.007 C183.011,169.063 179.454,171.038 174.795,172.125 C173.775,172.363 172.6,173.171 172.066,174.059 C168.438,180.098 164.897,186.192 161.491,192.359 C160.761,193.681 160.284,195.406 160.405,196.886 C160.818,201.888 164.31,205.281 167.35,209.685 C167.825,204.79 167.532,200.37 170.917,197.054 C168.557,207.979 170.858,211.338 180.337,218.957 C181.922,216.401 183.5,213.854 185.267,211.005 C183.006,219.134 180.863,226.844 178.719,234.554 C178.007,237.112 177.881,239.414 180.229,241.441 C181.339,242.398 181.978,243.998 182.599,245.408 C183.81,248.159 184.641,249.253 186.612,249.253 C187.311,249.253 188.152,249.116 189.204,248.867 C194.369,247.642 199.517,246.299 204.579,244.71 C210.517,242.847 211.892,240.437 210.148,234.537 C209.201,231.333 207.576,227.888 203.825,227.319 C198.164,226.461 196.669,222.09 194.674,217.968 C196.01,219.342 197.346,220.717 198.678,222.088 C200.63,220.141 201.518,219.26 202.58,219.26 C203.481,219.26 204.507,219.894 206.415,221.051 C207.648,221.798 209.049,222.611 210.424,222.715 C210.974,222.756 211.522,222.78 212.066,222.78 C214.916,222.78 217.649,222.135 219.994,220.085 C220.704,219.464 221.408,219.172 222.083,219.172 C223.008,219.172 223.882,219.718 224.653,220.713 C224.996,221.157 225.219,221.695 225.625,222.419 C227.396,220.556 228.68,219.205 229.936,217.883 C229.115,221.83 225.794,226.419 222.673,226.844 C218.568,227.403 216.604,230.048 214.962,233.281 C212.436,238.254 213.968,242.495 219.119,244.381 C222.652,245.676 226.239,246.875 229.883,247.792 C232.562,248.467 235.369,248.643 238.124,248.995 C238.301,249.017 238.469,249.028 238.63,249.028 C240.137,249.028 240.961,248.061 241.681,246.636 C242.848,244.323 244.358,242.186 245.647,239.931 C246.067,239.195 246.612,238.264 246.485,237.528 C245.913,234.227 245.292,230.914 244.371,227.697 C242.801,222.216 240.562,214.055 239.365,210.063 C239.342,209.987 239.338,209.952 239.352,209.952 C239.539,209.952 242.94,216.605 244.451,219.067 C251.777,213.299 257.315,207.095 253.389,196.624 C257.199,200.355 256.897,204.826 257.433,209.78 C259.616,206.518 261.577,204.073 262.983,201.342 C264.235,198.911 265.446,196.047 263.97,193.374 C260.332,186.777 256.458,180.307 252.559,173.86 C252.064,173.041 250.918,172.348 249.953,172.126 C245.295,171.061 241.579,169.133 240.151,164.035 C239.528,161.811 238.509,159.444 236.98,157.774 C234.324,154.874 231.035,153.416 227.612,153.416 C224.335,153.416 220.937,154.75 217.85,157.431 C214.868,160.021 213.504,161.148 212.291,161.148 Z M195.022,150.071 C196.194,150.071 197.415,150.278 198.672,150.704 C202.266,151.919 205.699,153.729 209.02,155.599 C211.143,156.794 211.75,157.421 212.376,157.421 C212.996,157.421 213.632,156.809 215.767,155.529 C218.49,153.897 221.252,152.157 224.229,151.157 C226.077,150.536 227.799,150.228 229.398,150.228 C234.071,150.228 237.688,152.855 240.31,157.964 C241.32,159.93 242.241,161.945 243.105,163.979 C244.31,166.816 246.377,168.455 249.455,168.654 C251.768,168.804 253.306,169.704 254.379,171.927 C256.694,176.72 259.204,181.426 261.835,186.052 C262.954,188.018 264.417,189.862 266.028,191.454 C267.522,192.93 267.748,194.28 267.181,196.237 C265.085,203.472 262.63,210.506 256.807,215.703 C254.561,217.708 252.15,219.584 249.605,221.187 C245.993,223.461 245.593,224.603 246.698,228.623 C247.712,232.314 248.308,236.129 248.898,239.919 C249.009,240.635 248.315,241.548 247.841,242.271 C246.765,243.91 245.294,245.357 244.529,247.118 C243.24,250.08 241.657,252.409 237.852,252.42 C238.056,253.45 238.188,254.218 238.363,254.977 C239.217,258.698 238.792,262.223 236.278,265.179 C234.534,267.228 232.686,269.317 230.499,270.834 C225.522,274.289 220.306,277.4 215.189,280.653 C214.236,281.258 213.285,281.587 212.325,281.587 C211.458,281.587 210.585,281.32 209.696,280.749 C204.458,277.38 199.029,274.281 193.996,270.633 C188,266.289 183.798,260.898 187.032,252.806 C186.494,252.568 186.213,252.36 185.911,252.324 C183.083,251.978 181.394,250.402 180.573,247.694 C180.295,246.778 179.819,245.746 179.108,245.166 C174.602,241.486 176.245,236.808 176.941,232.319 C177.189,230.717 177.835,229.175 178.322,227.612 C179.113,225.072 178.593,223.057 176.34,221.91 C165.239,216.254 159.961,206.543 157.332,194.955 C157.188,194.32 157.162,193.307 157.536,192.958 C163.799,187.123 166.05,178.847 170.391,171.851 C171.592,169.915 172.824,168.774 175.11,168.671 C178.413,168.522 180.418,166.664 181.787,163.696 C183.219,160.591 184.739,157.456 186.718,154.689 C188.863,151.691 191.746,150.072 195.022,150.071 Z" id="Fill-8" fill="#1A1919"></path>
            <path d="M266.99,209.191 C269.297,214.145 272.845,217.735 276.692,221.109 C281.755,225.549 286.159,230.563 287.836,237.266 C290.036,246.053 288.683,254.359 283.447,261.866 C281.664,264.419 279.671,266.826 277.775,269.3 C273.698,274.618 270.993,280.48 270.602,287.272 C270.57,287.832 270.4,288.383 270.203,289.416 C267.895,284.991 266.521,280.671 266.492,276.212 C266.444,269.024 266.564,261.784 267.384,254.655 C268.477,245.143 266.872,236.226 263.183,227.56 C262.095,225.003 260.68,222.584 259.607,220.022 C259.316,219.327 259.418,218.093 259.869,217.526 C262.056,214.771 264.423,212.158 266.99,209.191" id="Fill-9" fill="#FFFFFE"></path>
            <path d="M154.426,288.995 C154.204,287.262 154.051,285.665 153.79,284.085 C152.684,277.387 149.204,271.889 145.017,266.736 C141.646,262.589 138.419,258.353 137.075,253.015 C134.509,242.833 136.271,233.659 143.418,225.761 C145.013,223.999 146.847,222.455 148.468,220.714 C151.741,217.199 154.943,213.617 158.306,209.918 C160.368,212.286 162.935,215.121 165.317,218.104 C165.65,218.522 165.25,219.763 164.884,220.464 C161.69,226.592 159.173,232.933 157.71,239.732 C156.255,246.493 157.326,253.116 158.051,259.795 C159.078,269.252 159.206,278.637 155.385,287.636 C155.258,287.936 155.134,288.24 154.973,288.522 C154.901,288.649 154.742,288.728 154.426,288.995" id="Fill-10" fill="#FFFFFE"></path>
            <path d="M250.8,225.791 C252.259,224.582 254.206,222.968 256.315,221.221 C259.875,227.546 262.758,234.195 263.218,241.428 C263.701,249.017 263.651,256.691 263.134,264.281 C262.321,276.236 264.746,287.249 271.033,297.429 C271.326,297.903 271.558,298.415 272.008,299.268 C267.361,297.86 263.648,295.527 260.505,292.412 C250.227,282.223 245.047,269.98 246.208,255.373 C246.581,250.679 248.387,246.511 251.493,242.894 C252.161,242.116 252.743,240.861 252.646,239.898 C252.18,235.286 251.467,230.698 250.8,225.791" id="Fill-11" fill="#FFFFFE"></path>
            <path d="M153.162,299.632 C155.57,293.903 158.093,288.849 159.836,283.539 C162.633,275.024 161.912,266.199 161.131,257.435 C160.038,245.157 161.705,233.403 167.725,222.468 C167.882,222.182 168.026,221.888 168.204,221.615 C168.282,221.494 168.428,221.416 168.522,221.336 C170.479,222.954 172.427,224.564 173.944,225.818 C173.267,230.581 172.513,235.075 172.068,239.599 C171.959,240.705 172.588,242.147 173.348,243.029 C177.447,247.789 178.995,253.469 178.77,259.473 C178.241,273.617 172.763,285.55 161.61,294.524 C159.163,296.494 156.2,297.822 153.162,299.632" id="Fill-12" fill="#FFFFFE"></path>
            <path d="M290.985,160.636 C286.836,160.866 282.618,160.696 278.556,161.413 C271.32,162.689 264.189,164.553 256.987,166.041 C255.862,166.273 254.581,165.891 253.398,165.663 C252.041,165.401 250.598,165.21 249.409,164.58 C248.481,164.087 247.316,163.025 247.229,162.123 C246.53,154.849 248.871,148.609 254.711,144.135 C256.688,142.621 259.379,141.657 261.871,141.275 C267.681,140.386 271.581,144.342 271.597,150.793 C271.602,152.812 271.213,154.832 270.946,157.434 C274.162,152.531 276.396,147.855 275.652,142.355 C275.068,138.038 270.815,134.877 265.329,135.084 C254.629,135.487 246.524,140.622 240.766,149.567 C240.426,150.095 240.176,150.681 239.801,151.399 C238.527,150.539 237.396,149.775 236.039,148.858 C236.717,147.6 237.176,146.351 237.958,145.358 C245.247,136.112 254.475,130.483 266.565,130.654 C275.637,130.783 282.136,138.543 280.752,147.558 C280.398,149.866 280.88,151.135 282.841,152.546 C285.907,154.75 288.562,157.524 291.39,160.057 C291.255,160.25 291.12,160.443 290.985,160.636" id="Fill-13" fill="#FFFFFE"></path>
            <path d="M132.881,160.354 C136.392,157.291 139.277,154.491 142.475,152.111 C143.981,150.991 144.204,150.015 144.124,148.303 C144.008,145.807 144.037,143.18 144.69,140.797 C146.305,134.912 150.43,131.574 156.452,130.729 C167.225,129.219 182.617,137.193 187.696,146.846 C187.996,147.416 188.216,148.03 188.589,148.892 C187.45,149.679 186.332,150.453 185.05,151.339 C184.809,150.991 184.575,150.706 184.396,150.391 C179.339,141.468 171.516,136.6 161.542,135.142 C159.517,134.846 157.263,135.258 155.26,135.843 C150.809,137.142 148.849,140.014 148.947,144.629 C149.044,149.211 150.96,153.134 153.775,156.761 C153.574,155.309 153.343,153.861 153.177,152.405 C152.189,143.759 158.758,138.814 166.813,142.131 C173.831,145.021 179.139,155.1 177.532,162.529 C177.433,162.989 177.237,163.682 176.916,163.799 C174.033,164.851 171.126,167.005 168.07,166.072 C157.085,162.718 145.943,160.689 134.443,160.732 C134.218,160.733 133.993,160.628 132.881,160.354" id="Fill-14" fill="#FFFFFE"></path>
            <path d="M302.769,245.827 C297.68,244.296 293.866,241.218 291.796,236.5 C288.029,227.914 282.056,221.218 274.954,215.32 C273.21,213.873 271.693,212.07 270.379,210.213 C268.761,207.925 268.225,205.31 269.086,202.498 C269.445,201.33 269.606,200.096 269.795,198.883 C270.362,195.256 270.35,195.254 274.079,195.326 C289.436,195.622 300.316,206.386 300.788,221.765 C300.956,227.26 300.97,232.764 301.31,238.248 C301.464,240.737 302.241,243.188 302.769,245.827" id="Fill-15" fill="#FFFFFE"></path>
            <path d="M121.681,245.83 C124.168,239.447 123.791,233.038 123.945,226.653 C124.044,222.495 124.244,218.241 125.201,214.221 C127.579,204.233 136.504,196.829 146.82,195.741 C148.693,195.543 150.581,195.475 152.462,195.36 C153.829,195.277 154.555,195.883 154.755,197.291 C155.066,199.479 155.515,201.647 155.887,203.827 C156.395,206.814 155.281,209.379 153.424,211.531 C151.61,213.634 149.564,215.567 147.45,217.376 C141.767,222.241 136.981,227.747 133.904,234.669 C131.55,239.967 127.944,244.078 121.681,245.83" id="Fill-16" fill="#FFFFFE"></path>
            <path d="M212.317,326.911 C210.163,324.528 208.168,321.732 205.613,319.611 C199.344,314.407 198.307,307.898 200.098,300.492 C200.714,297.947 201.592,295.458 202.09,292.894 C202.769,289.39 203.2,285.837 203.752,282.205 C205.155,282.869 206.902,283.559 208.508,284.49 C211.167,286.03 213.694,285.964 216.327,284.44 C217.871,283.545 219.537,282.862 221.594,281.869 C220.429,289.518 224.099,296.002 225.107,302.994 C225.972,308.999 224.911,314.158 220.281,318.453 C217.41,321.116 214.888,324.155 212.317,326.911" id="Fill-17" fill="#FFFFFE"></path>
            <path d="M310.572,200.814 C307.1,196.527 304.166,192.026 300.385,188.413 C292.293,180.683 282.064,177.549 271.157,176.427 C267.819,176.084 264.438,176.172 261.092,175.883 C260.314,175.815 259.343,175.181 258.903,174.515 C257.827,172.885 257.007,171.085 255.856,168.923 C261.026,167.713 265.959,166.214 271.004,165.468 C276.727,164.621 282.542,164.237 288.33,164.044 C293.142,163.884 296.619,166.708 299.523,170.271 C303.972,175.728 306.439,182.131 308.14,188.842 C309.14,192.789 309.775,196.828 310.572,200.814" id="Fill-18" fill="#FFFFFE"></path>
            <path d="M114.84,200.998 C114.917,194.85 116.102,188.936 118.342,183.347 C120.034,179.125 122.166,175.014 124.601,171.169 C127.986,165.827 133.191,163.539 139.502,163.752 C149.398,164.087 158.952,166.261 168.757,169.066 C167.63,171.21 166.719,173.275 165.475,175.116 C165.083,175.696 163.802,175.898 162.928,175.896 C154.835,175.875 146.89,176.812 139.236,179.54 C128.684,183.301 120.51,189.875 115.422,200.017 C115.252,200.355 115.036,200.671 114.84,200.998" id="Fill-19" fill="#FFFFFE"></path>
            <path d="M307.349,206.669 C300.694,200.773 293.273,196.52 284.782,194.419 C280.826,193.44 276.715,193.099 272.701,192.329 C271.663,192.129 270.522,191.612 269.78,190.884 C266.392,187.562 263.562,183.809 261.416,179.469 C279.579,175.134 305.075,190.243 307.349,206.669" id="Fill-20" fill="#FFFFFE"></path>
            <path d="M163.798,179.854 C160.587,183.827 157.637,187.734 154.364,191.35 C153.549,192.25 151.712,192.448 150.313,192.56 C137.88,193.55 127.029,198.215 117.069,206.891 C117.772,204.728 118.156,203.154 118.783,201.683 C122.533,192.874 129.39,187.271 137.924,183.526 C145.232,180.32 152.952,179.022 160.908,179.043 C161.48,179.045 162.054,179.104 162.623,179.168 C162.766,179.184 162.895,179.319 163.798,179.854" id="Fill-21" fill="#FFFFFE"></path>
            <path d="M159.301,127.517 C167.464,121.106 178.197,120.529 186.95,126.122 C195.318,131.47 200.217,139.452 203.786,148.779 C201.135,148.23 198.719,147.168 196.421,147.381 C192.652,147.73 190.771,146.083 188.619,143.244 C181.828,134.288 172.142,130.122 161.38,128.084 C160.898,127.993 160.408,127.944 159.927,127.848 C159.776,127.818 159.642,127.702 159.301,127.517" id="Fill-22" fill="#FFFFFE"></path>
            <path d="M221.108,148.282 C225.096,138.232 230.681,129.194 241.177,124.325 C249.008,120.692 258.121,121.985 265.603,127.601 C264.085,127.927 262.796,128.201 261.509,128.482 C250.051,130.988 240.292,136.123 233.801,146.345 C233.533,146.768 233.001,147.249 232.551,147.294 C228.782,147.675 225.003,147.959 221.108,148.282" id="Fill-23" fill="#FFFFFE"></path>
            <path d="M242.984,263.72 C242.509,269.284 244.082,274.42 246.321,279.388 C247.868,282.82 249.528,286.202 251.207,289.57 C253.252,293.669 253.075,297.637 250.574,301.448 C248.97,303.89 247.23,306.243 245.335,308.943 C244.62,302.739 241.834,297.772 239.097,292.751 C237.305,289.464 235.511,286.096 234.404,282.55 C233.778,280.549 233.896,277.8 234.806,275.938 C236.94,271.573 239.752,267.539 242.289,263.37 C242.521,263.487 242.752,263.603 242.984,263.72" id="Fill-24" fill="#FFFFFE"></path>
            <path d="M178.817,308.127 C177.432,306.142 175.733,303.832 174.166,301.437 C171.674,297.626 171.65,293.732 173.509,289.555 C176.257,283.376 178.859,277.121 181.198,270.778 C181.989,268.632 181.79,266.123 182.484,263.379 C185.092,267.756 187.907,272.027 190.232,276.549 C191.696,279.395 190.886,282.541 189.535,285.328 C187.894,288.71 185.857,291.903 184.268,295.306 C182.287,299.551 180.588,303.927 178.817,308.127" id="Fill-25" fill="#FFFFFE"></path>
            <path d="M196.31,316.991 C194.304,315.757 192.813,314.909 191.394,313.956 C184.534,309.348 183.257,304.552 187.039,297.123 C188.598,294.059 190.485,291.165 192.094,288.124 C194.055,284.422 195.106,280.519 194.045,276.272 C198.514,278.464 201.171,283.788 199.969,288.673 C198.974,292.719 197.6,296.669 196.45,300.678 C194.956,305.885 194.744,311.139 196.31,316.991" id="Fill-26" fill="#FFFFFE"></path>
            <path d="M230.786,275.785 C229.469,281.086 231.1,285.475 233.454,289.706 C235.048,292.571 236.834,295.343 238.235,298.298 C241.211,304.584 239.914,309.322 234.291,313.301 C232.564,314.524 230.712,315.571 228.364,317.045 C230.889,308.492 228.594,301.014 226.067,293.547 C225.439,291.691 224.865,289.782 224.579,287.85 C223.797,282.564 226.638,279.034 230.786,275.785" id="Fill-27" fill="#FFFFFE"></path>
            <path d="M228.988,189.231 C231.261,191.353 233.233,191.874 235.486,190.667 C237.961,189.342 239.464,186.526 239.045,183.409 C235.681,185.356 232.486,187.206 228.988,189.231 Z M232.127,195.338 C231.923,198.728 231.719,202.118 231.524,205.358 C228.136,197.792 224.749,190.228 221.731,183.486 C223.124,184.005 225.305,185.515 227.406,185.412 C229.665,185.3 232.058,183.982 234.027,182.651 C238.509,179.62 243.017,177.549 248.445,179.956 C248.566,180.009 248.657,180.131 248.893,180.335 C248.249,180.756 247.667,181.165 247.058,181.529 C243.761,183.497 241.852,186.401 241.145,190.153 C240.545,193.336 239.47,196.303 237.071,198.631 C235.669,197.393 234.273,196.158 232.876,194.924 C232.627,195.062 232.377,195.2 232.127,195.338 Z" id="Fill-28" fill="#1A1919"></path>
            <path d="M185.423,183.255 C185.502,187.224 187.24,189.94 189.904,190.964 C192.051,191.79 193.808,191.151 195.666,189.191 C192.254,187.214 189.055,185.36 185.423,183.255 Z M175.389,180.361 C179.662,178.525 183.322,178.288 186.92,180.419 C188.539,181.378 190.124,182.398 191.707,183.417 C196.624,186.585 199.287,186.406 203.34,182.756 C200.017,190.151 196.601,197.75 193.219,205.276 C193.012,202.104 192.788,198.664 192.51,194.412 C190.559,196.083 189.185,197.262 187.661,198.568 C185.657,196.785 184.458,194.338 183.962,191.576 C183.066,186.592 180.783,182.665 175.389,180.361 Z" id="Fill-29" fill="#1A1919"></path>
            <path d="M228.988,189.231 C232.486,187.206 235.681,185.356 239.045,183.409 C239.464,186.526 237.961,189.342 235.486,190.667 C233.233,191.874 231.261,191.353 228.988,189.231" id="Fill-30" fill="#FFFFFE"></path>
            <path d="M185.423,183.255 C189.055,185.36 192.254,187.214 195.666,189.191 C193.808,191.151 192.051,191.79 189.904,190.964 C187.24,189.94 185.502,187.224 185.423,183.255" id="Fill-31" fill="#FFFFFE"></path>
            <path d="M58.321,161.255 L63.525,163.133 L63.335,163.764 L61.907,164.252 C62.061,164.613 62.317,165.12 62.454,166.02 C62.567,166.712 62.608,167.642 62.159,169.14 C60.707,173.974 56.195,176.973 49.889,175.079 C48.58,174.686 45.886,173.762 43.869,170.779 C41.622,167.497 42.147,164.389 42.565,162.996 C43.188,160.92 44.392,159.821 45.4,159.179 L44.417,158.282 L44.623,157.599 C44.997,157.711 49.559,158.91 49.559,158.91 L49.307,159.75 C47.727,159.677 46.632,159.635 45.336,160.362 C44.671,160.735 43.804,161.392 43.299,163.073 C43.125,163.651 42.69,165.296 43.873,166.884 C44.929,168.318 47.634,169.589 51.562,170.769 C56.745,172.326 60.374,172.27 61.391,168.88 C62.527,165.097 58.941,162.587 58.077,162.07 L58.321,161.255" id="Fill-32" fill="#000206"></path>
            <path d="M58.539,148.919 C59.718,146.172 58.936,144.881 55.809,143.539 C51.861,141.845 51.046,143.674 50.44,145.085 L49.477,147.329 L57.706,150.86 L58.539,148.919 Z M67.259,152.154 L67.926,152.44 L64.388,160.683 L63.722,160.397 L64.641,158.254 L47.876,151.06 L46.956,153.202 L46.29,152.916 L50.217,143.766 C51.072,141.774 52.204,139.842 54.452,139.344 C55.153,139.197 56.288,139.028 57.852,139.699 C58.595,140.018 60.207,140.859 60.687,143.065 C61.047,144.772 60.527,146.339 59.921,147.751 L58.45,151.179 L66.243,154.524 L67.259,152.154 Z" id="Fill-33" fill="#000206"></path>
            <path d="M75.933,135.053 L77.248,132.739 L77.878,133.098 L73.212,141.302 L72.582,140.943 L73.925,138.583 L58.116,129.588 L57.845,130.065 C56.922,131.687 56.634,132.533 56.854,133.669 C57.168,135.205 58.416,136.452 59.742,137.395 L59.348,138.086 L54.29,134.735 L62.605,120.116 L68.125,122.656 L67.718,123.372 C66.352,122.783 65.2,122.381 63.694,122.66 C62.036,122.98 61.29,124.008 60.68,125.081 L60.124,126.059 L75.933,135.053" id="Fill-34" fill="#000206"></path>
            <polyline id="Fill-35" fill="#000206" points="83.628 110.308 85.508 111.754 80.825 117.842 78.946 116.396 83.628 110.308"></polyline>
            <path d="M111.489,92.429 L111.99,92.953 L105.662,98.999 L105.161,98.474 L106.986,96.731 L94.459,83.619 L103.401,101.159 L102.984,101.557 L85.912,91.669 L97.359,103.652 C98.476,104.822 98.754,104.596 99.746,103.648 L100.261,103.155 L100.762,103.68 L96.656,107.603 L96.155,107.078 L96.75,106.51 C97.544,105.751 97.648,105.266 96.685,104.257 L85.238,92.275 L83.551,93.886 L83.05,93.361 L88.248,88.396 L99.34,95.122 L93.425,83.45 L98.384,78.712 L98.885,79.236 L97.258,80.79 L109.862,93.983 L111.489,92.429" id="Fill-36" fill="#000206"></path>
            <path d="M119.195,74.331 C118.122,72.834 116.239,70.443 114.506,69.626 C113.568,69.165 112.23,68.854 110.289,70.243 C106.519,72.943 109.69,77.604 111.218,79.735 L112.258,81.186 C113.607,83.068 115.488,85.598 117.741,86.387 C119.45,86.981 120.787,86.161 121.567,85.602 C122.995,84.58 123.574,83.41 123.246,81.586 C122.902,79.74 121.6,77.687 120.283,75.851 L119.195,74.331 Z M125.722,79.435 C125.542,82.481 124.198,84.61 121.767,86.352 C120.919,86.958 119.101,88.191 116.381,88.116 C114.648,88.053 110.984,87.417 108.254,83.607 C106.516,81.181 105.793,78.335 106.308,75.428 C106.936,71.924 108.936,70.286 110.119,69.439 C111.658,68.337 113.043,67.962 113.758,67.828 C115.961,67.417 120.23,67.722 123.562,72.37 C124.309,73.413 125.943,75.881 125.722,79.435 Z" id="Fill-37" fill="#000206"></path>
            <path d="M136.735,56.045 C136.251,55.134 135.777,55.354 134.881,55.83 L134.13,56.228 L133.79,55.587 L138.66,53.002 L139,53.643 L137.958,54.196 C137.086,54.659 137.417,55.399 137.77,56.064 L145.995,71.565 L145.438,71.861 L126.109,62.476 L132.975,75.413 C133.354,76.128 133.886,77.014 135.025,76.409 L136.261,75.753 L136.601,76.394 L131.318,79.198 L130.978,78.558 L131.875,78.081 C132.869,77.554 132.711,76.848 132.371,76.207 L125.297,62.875 C124.8,61.939 124.437,61.373 123.298,61.978 L122.426,62.441 L122.086,61.8 L127.635,58.854 L141.795,65.583 L136.735,56.045" id="Fill-38" fill="#000206"></path>
            <path d="M150.301,54.594 L150.527,62.908 L155.725,60.91 L150.301,54.594 Z M165.215,62.972 L165.476,63.649 L157.283,66.798 L157.022,66.121 L159.429,65.196 L156.241,61.489 L150.557,63.673 L150.66,66.922 C150.671,67.486 150.729,67.792 150.8,67.975 C150.97,68.418 151.39,68.286 151.799,68.128 L153.233,67.578 L153.493,68.255 L147.86,70.42 L147.6,69.743 L148.522,69.388 C149.751,68.916 149.81,68.535 149.786,67.019 L149.371,48.734 L150.216,48.409 L163.27,63.719 L165.215,62.972 Z" id="Fill-39" fill="#000206"></path>
            <path d="M179.819,54.312 L180.908,59.735 L180.27,59.899 L179.113,58.93 C178.883,59.248 178.582,59.729 177.883,60.313 C177.349,60.768 176.576,61.284 175.061,61.675 C170.173,62.935 165.271,60.628 163.625,54.254 C163.284,52.931 162.678,50.148 164.186,46.879 C165.829,43.257 168.76,42.098 170.168,41.735 C172.267,41.194 173.83,41.655 174.903,42.185 L175.161,40.88 L175.852,40.702 C175.95,41.08 177.288,45.603 177.288,45.603 L176.437,45.822 C175.681,44.433 175.151,43.475 173.857,42.743 C173.193,42.367 172.182,41.965 170.482,42.403 C169.898,42.554 168.265,43.033 167.52,44.867 C166.839,46.511 167.154,49.484 168.179,53.454 C169.532,58.693 171.458,61.768 174.886,60.885 C178.711,59.898 179,55.531 178.996,54.524 L179.819,54.312" id="Fill-40" fill="#000206"></path>
            <path d="M196.538,46.546 C196.31,44.719 195.798,41.719 194.665,40.174 C194.062,39.321 193.037,38.409 190.667,38.704 C186.068,39.276 186.627,44.884 186.952,47.486 L187.172,49.257 C187.459,51.555 187.903,54.676 189.505,56.444 C190.723,57.782 192.288,57.7 193.241,57.581 C194.983,57.365 196.05,56.613 196.633,54.854 C197.212,53.068 197.048,50.643 196.769,48.401 L196.538,46.546 Z M199.834,54.147 C198.222,56.737 196.026,57.966 193.058,58.335 C192.024,58.464 189.839,58.679 187.486,57.314 C185.994,56.432 183.079,54.124 182.5,49.474 C182.131,46.512 182.855,43.667 184.696,41.358 C186.92,38.58 189.458,38.095 190.902,37.915 C192.78,37.682 194.175,38.014 194.867,38.237 C196.998,38.928 200.603,41.234 201.31,46.908 C201.468,48.181 201.725,51.129 199.834,54.147 Z" id="Fill-41" fill="#000206"></path>
            <path d="M222.038,50.77 C222.124,48.847 221.974,47.919 221.461,47.114 C221.051,46.454 220.255,45.831 219.433,45.794 C217.954,45.728 216.982,47.191 216.818,50.842 C216.588,55.94 218.197,56.208 218.964,56.243 C219.896,56.285 220.867,55.463 221.342,54.647 C221.788,53.886 221.94,52.971 222.014,51.299 L222.038,50.77 Z M226.972,56.464 L226.94,57.189 L221.651,56.951 L221.73,55.195 C221.084,56.115 220.266,57.223 218.265,57.133 C216.127,57.037 215.13,56.014 214.557,55.318 C213.906,54.535 213.059,53.213 213.165,50.844 C213.198,50.12 213.332,48.339 214.613,46.75 C216.064,45 217.941,44.778 218.708,44.813 C219.367,44.842 220.787,45.018 222.108,46.781 L222.497,38.087 L220.689,38.006 L220.723,37.253 L222.148,37.318 C223.984,37.401 224.561,37.399 226.022,37.269 L225.163,56.383 L226.972,56.464 Z" id="Fill-42" fill="#000206"></path>
            <path d="M233.503,39.145 C234.592,39.277 235.356,40.269 235.221,41.377 C235.086,42.485 234.107,43.265 233.017,43.133 C231.928,43 231.164,42.008 231.299,40.9 C231.434,39.792 232.413,39.012 233.503,39.145 Z M235.131,57.554 L235.043,58.274 L228.043,57.423 L228.131,56.703 L229.983,56.928 L231.214,46.82 L229.362,46.595 L229.453,45.847 C231.278,46.069 232.977,46.191 234.74,46.237 L233.388,57.342 L235.131,57.554 Z" id="Fill-43" fill="#000206"></path>
            <path d="M255.737,51.74 C257.83,52.301 259.127,51.812 259.981,48.632 C260.588,46.368 260.695,44.49 258.176,43.815 L255.711,43.153 L253.564,51.157 L255.737,51.74 Z M253.646,61.434 C256.562,62.216 257.519,59.815 258.018,57.956 C258.604,55.773 258.575,54.61 257.821,53.714 C257.223,52.976 256.356,52.715 255.958,52.608 L253.361,51.911 L250.996,60.723 L253.646,61.434 Z M251.803,42.047 L249.55,41.443 L249.739,40.742 L258.406,43.067 C259.121,43.259 260.651,43.699 261.697,44.355 C262.572,44.907 264.776,46.539 263.952,49.61 C263.822,50.096 263.549,51.004 262.599,51.79 C261.182,52.941 259.578,52.886 257.903,52.668 C258.867,53.1 261.086,53.724 262.151,56.002 C262.788,57.329 262.454,58.684 262.338,59.115 C261.651,61.675 259.723,62.4 258.752,62.63 C256.904,63.059 254.492,62.412 252.743,61.942 L244.632,59.767 L244.821,59.066 L247.074,59.67 L251.803,42.047 Z" id="Fill-44" fill="#000206"></path>
            <path d="M274.681,54.552 L269.179,60.782 L274.343,62.867 L274.681,54.552 Z M279.878,70.846 L279.607,71.519 L271.467,68.233 L271.739,67.56 L274.13,68.525 L274.326,63.642 L268.679,61.362 L266.538,63.807 C266.163,64.226 265.996,64.49 265.923,64.671 C265.746,65.111 266.143,65.301 266.55,65.465 L267.974,66.04 L267.703,66.713 L262.107,64.454 L262.378,63.781 L263.294,64.151 C264.515,64.643 264.818,64.405 265.833,63.281 L277.996,49.634 L278.836,49.973 L277.946,70.066 L279.878,70.846 Z" id="Fill-45" fill="#000206"></path>
            <path d="M298.997,62.495 C299.393,62.104 299.608,61.935 299.74,61.688 C299.976,61.246 299.777,60.918 299.148,60.582 L297.938,59.936 L298.28,59.296 L303.216,61.933 L302.874,62.572 C302.415,62.327 301.724,61.99 301.217,62.066 C300.536,62.177 299.746,62.958 299.288,63.408 L286.451,75.688 L285.822,75.352 L288.33,54.805 L286.782,53.977 L287.123,53.338 L294.504,57.28 L294.163,57.919 L292.106,56.821 L290.105,70.997 L298.997,62.495" id="Fill-46" fill="#000206"></path>
            <path d="M306.26,70.974 L299.584,75.932 L304.203,79.042 L306.26,70.974 Z M307.961,87.997 L307.556,88.599 L300.276,83.697 L300.681,83.095 L302.82,84.535 L304.025,79.796 L298.974,76.396 L296.373,78.344 C295.918,78.677 295.702,78.901 295.592,79.063 C295.328,79.456 295.676,79.725 296.039,79.97 L297.314,80.828 L296.909,81.429 L291.904,78.059 L292.309,77.457 L293.127,78.009 C294.22,78.744 294.566,78.574 295.792,77.684 L310.524,66.849 L311.275,67.354 L306.232,86.833 L307.961,87.997 Z" id="Fill-47" fill="#000206"></path>
            <path d="M321.92,86.579 C322.708,87.261 323.773,87.959 325.038,87.504 C325.841,87.203 326.699,86.211 327.21,85.621 C328.177,84.502 328.616,83.701 328.63,83.013 C328.657,81.893 327.49,80.81 327.095,80.468 L325.394,78.997 L320.157,85.054 L321.92,86.579 Z M322.622,100.907 C321.395,100.398 320.667,100.064 319.629,99.167 C319.277,98.862 318.53,98.216 318.356,97.033 C318.085,94.955 319.626,93.3 320.746,91.796 C321.791,90.377 322.233,89.615 322.157,88.738 C322.079,87.822 321.386,87.113 320.763,86.574 L319.663,85.624 L313.496,92.756 L315.529,94.515 L315.054,95.064 L308.164,89.106 L308.639,88.557 L310.424,90.101 L322.359,76.299 L320.575,74.756 L321.049,74.207 L328.146,80.344 C329.661,81.654 331.451,83.275 331.416,85.496 C331.415,86.084 331.236,87.257 330.232,88.417 C329.903,88.797 329.28,89.476 328.063,89.751 C326.034,90.21 324.497,89.176 322.997,88.101 C323.837,89.269 324.425,90.183 324.619,91.679 C324.759,92.648 324.604,93.289 324.455,93.713 C323.66,95.976 320.163,98.3 321.76,99.682 C322.217,100.077 323.053,100.283 323.134,100.316 L322.622,100.907 Z" id="Fill-48" fill="#000206"></path>
            <polyline id="Fill-49" fill="#000206" points="330.075 108.74 329.548 109.239 323.588 102.941 324.116 102.443 325.7 104.117 338.952 91.583 337.368 89.909 337.895 89.411 343.854 95.708 343.328 96.206 341.762 94.552 328.509 107.086 330.075 108.74"></polyline>
            <path d="M346.118,107.414 L338.244,110.08 L341.685,114.46 L346.118,107.414 Z M342.515,124.14 L341.945,124.588 L336.52,117.684 L337.09,117.235 L338.684,119.263 L341.285,115.124 L337.521,110.334 L334.448,111.389 C333.913,111.566 333.638,111.712 333.484,111.833 C333.112,112.126 333.361,112.489 333.632,112.834 L334.581,114.042 L334.011,114.49 L330.282,109.744 L330.852,109.295 L331.462,110.072 C332.276,111.108 332.658,111.052 334.098,110.583 L351.441,104.798 L352,105.51 L341.227,122.5 L342.515,124.14 Z" id="Fill-50" fill="#000206"></path>
            <path d="M354.315,138.817 C355.121,140.252 355.723,140.071 357.358,139.279 L357.736,139.099 L358.112,139.769 L352.551,142.513 L346.844,132.345 L348.863,131.211 C350.289,131.701 354.465,133.1 357.23,133.467 C358.093,133.58 360.403,133.762 362.762,132.438 C365.218,131.059 365.72,129.046 364.888,127.562 C364.082,126.127 361.957,125.589 361.081,126.081 C360.789,126.245 360.924,126.484 361.085,126.771 L361.421,127.37 C362.12,128.614 360.848,129.484 360.508,129.676 C359.851,130.044 358.699,130.157 358.04,128.984 C357.034,127.19 359.085,125.943 359.377,125.78 C362.199,124.195 365.273,125.742 366.777,128.421 C368.053,130.694 368.079,134.046 365.161,135.685 C363.482,136.627 361.156,136.644 356.557,134.946 C354.662,134.249 352.67,133.321 350.864,132.668 L354.315,138.817" id="Fill-51" fill="#000206"></path>
            <path d="M363.567,144.904 C358.476,147.19 355.987,148.729 356.873,150.706 C357.626,152.383 359.607,152.095 363.373,150.403 L365.97,149.237 C372.231,146.426 374.296,145.168 373.398,143.166 C372.601,141.389 370.745,141.682 365.348,144.104 L363.567,144.904 Z M369.283,139.993 C370.163,140.048 373.015,140.541 374.026,142.793 C374.509,143.87 374.755,145.713 373.289,147.965 C372.347,149.411 370.746,151.091 367.413,152.588 C366.293,153.091 363.623,154.23 360.509,153.764 C357.864,153.389 356.69,151.931 356.229,150.905 C355.982,150.355 355.644,149.124 356.106,147.563 C356.641,145.759 358.389,143.11 362.461,141.282 C363.657,140.745 366.145,139.748 369.283,139.993 Z" id="Fill-52" fill="#000206"></path>
            <path d="M364.038,168.568 L363.353,168.805 L360.218,159.726 L360.904,159.489 L361.908,162.395 L378.229,156.756 L377.234,153.876 L377.972,153.622 C378.707,155.749 379.582,157.943 380.712,159.933 L363.152,166 L364.038,168.568" id="Fill-53" fill="#000206"></path>
            <path d="M380.583,176.35 C383.994,175.502 384.115,174.483 383.857,173.445 C383.374,171.5 381.425,171.985 379.205,172.537 C377.473,172.967 375.435,173.672 375.898,175.536 C376.307,177.187 378.038,176.983 379.447,176.633 L380.583,176.35 Z M375.025,175.725 C374.437,173.355 371.54,174.075 370.052,174.445 C366.696,175.28 365.858,176.42 366.241,177.965 C366.763,180.069 368.852,179.803 371.235,179.211 C373.508,178.646 375.56,177.881 375.025,175.725 Z M372.186,183.045 C368.721,183.907 366.319,180.942 365.619,178.12 C364.924,175.324 365.629,171.446 369.121,170.578 C370.258,170.295 372.502,170.076 375.063,173.793 C375.231,172.734 375.248,169.676 378.388,168.896 C381.691,168.075 383.933,170.74 384.587,173.376 C385.281,176.171 384.101,179.292 381.123,180.033 C378.444,180.699 376.908,178.677 375.949,177.361 C375.871,179.02 375.353,182.258 372.186,183.045 Z" id="Fill-54" fill="#000206"></path>
            <path d="M46.075,217.577 C46.075,220.878 43.398,223.555 40.097,223.555 C36.795,223.555 34.119,220.878 34.119,217.577 C34.119,214.275 36.795,211.599 40.097,211.599 C43.398,211.599 46.075,214.275 46.075,217.577" id="Fill-55" fill="#000206"></path>
            <path d="M390.056,217.577 C390.056,220.878 387.379,223.555 384.079,223.555 C380.777,223.555 378.1,220.878 378.1,217.577 C378.1,214.275 380.777,211.599 384.079,211.599 C387.379,211.599 390.056,214.275 390.056,217.577" id="Fill-56" fill="#000206"></path>
            <path d="M37.176,263.524 L37.725,266.077 L37.193,266.191 L35.408,257.893 L35.94,257.779 L36.518,260.465 L53.362,256.842 L52.978,255.061 C52.446,252.587 50.307,252.129 47.53,252.031 L46.969,252.012 L46.866,251.534 L52.541,250.563 L55.82,265.803 L50.288,267.438 L50.197,267.012 L50.714,266.707 C53.556,265.01 54.89,263.944 54.306,261.231 L54.02,259.901 L37.176,263.524" id="Fill-57" fill="#000206"></path>
            <path d="M44.331,275.394 C43.632,275.75 41.713,276.701 41.713,279.321 C41.713,279.638 41.727,280.237 41.985,280.983 C42.314,281.935 43.561,284.355 46.517,284.026 C47.97,283.87 50.207,283.126 51.555,282.662 C52.95,282.179 54.313,281.68 55.64,281.079 C56.805,280.561 57.885,279.958 58.462,278.694 C59.118,277.258 58.701,275.732 58.532,275.243 C58.336,274.677 57.27,272.223 54.651,272.177 C53.464,272.155 51.42,272.746 48.653,273.701 C47.184,274.207 45.714,274.715 44.331,275.394 Z M53.499,269.955 C54.594,270.268 57.941,271.387 59.202,275.041 C59.913,277.099 59.668,279.169 58.736,281.075 C57.108,284.458 54.205,285.576 52.98,285.999 C51.977,286.345 49.73,287.063 46.959,286.262 C45.865,285.95 42.559,284.788 41.315,281.186 C40.88,279.925 40.443,277.628 41.971,274.827 C42.686,273.486 44.132,271.403 47.537,270.228 C48.516,269.89 50.747,269.207 53.499,269.955 Z" id="Fill-58" fill="#000206"></path>
            <path d="M58.142,295.422 C59.07,297.301 60.373,299.177 63.647,297.559 C67.084,295.861 66.127,293.572 65.066,291.424 L64.584,290.449 L57.431,293.983 L58.142,295.422 Z M49.803,299.421 C50.658,301.093 51.068,301.922 52.045,302.381 C53.282,302.954 54.725,302.484 55.817,301.944 C57.094,301.313 58.589,300.362 58.6,298.687 C58.611,297.892 58.245,296.859 57.606,295.566 L56.943,294.224 L49.14,298.08 L49.803,299.421 Z M63.306,287.863 L62.185,285.593 L62.649,285.364 L65.796,291.732 C66.459,293.074 67.042,294.546 67.191,295.959 C67.476,298.642 66.044,299.896 65.115,300.355 C62.282,301.754 59.618,298.76 59.053,297.735 C59.527,298.927 60.587,301.833 58.713,304.064 C58.311,304.537 57.859,304.791 57.58,304.928 C55.769,305.823 53.722,305.832 51.677,303.565 C50.702,302.468 49.846,300.736 49.219,299.467 L46.302,293.563 L46.789,293.322 L47.862,295.493 L63.306,287.863 Z" id="Fill-59" fill="#000206"></path>
            <polyline id="Fill-60" fill="#000206" points="59.096 316.016 60.363 318.048 59.902 318.336 55.71 311.618 56.171 311.33 57.425 313.338 72.036 304.216 70.784 302.207 71.223 301.933 75.415 308.651 74.975 308.925 73.707 306.894 59.096 316.016"></polyline>
            <path d="M70.927,328.335 C71.498,329.062 71.4,330.109 70.708,330.654 C70.016,331.199 68.975,331.048 68.402,330.322 C67.83,329.595 67.929,328.547 68.621,328.003 C69.313,327.458 70.354,327.608 70.927,328.335" id="Fill-61" fill="#000206"></path>
            <path d="M82.561,345.221 L83.657,346.279 C85.457,348.017 87.482,349.718 89.986,348.534 C91.22,347.96 92.468,346.824 94.483,344.736 C96.57,342.573 97.873,340.986 98.251,339.694 C98.94,337.334 97.289,335.597 95.821,334.18 L94.47,332.877 L82.561,345.221 Z M92.254,330.667 L90.61,329.081 L90.97,328.707 L95.884,333.449 C98.076,335.565 98.954,336.771 99.454,338.407 C99.842,339.573 100.665,343.499 97.085,347.21 C94.602,349.784 91.73,350.252 89.643,350.183 C87.085,350.091 85.003,348.371 83.555,346.972 L78.171,341.778 L78.549,341.386 L80.291,343.067 L92.254,330.667 Z" id="Fill-62" fill="#000206"></path>
            <path d="M107.048,348.987 L100.288,353.369 L104.541,356.633 L107.048,348.987 Z M95.081,356.754 L97.067,358.279 L96.736,358.71 L92.655,355.579 L92.986,355.147 L94.455,356.274 L110.433,346.097 L111.123,346.627 L105.228,364.542 L106.827,365.769 L106.517,366.217 L100.277,361.428 L100.608,360.997 L102.616,362.538 L104.345,357.202 L99.767,353.688 L95.081,356.754 Z" id="Fill-63" fill="#000206"></path>
            <polyline id="Fill-64" fill="#000206" points="113.83 371.173 117.808 352.34 116.33 351.418 116.604 350.978 123.091 355.026 122.817 355.466 120.578 354.069 117.53 368.015 128.496 359.009 126.142 357.541 126.415 357.1 131.01 359.966 130.736 360.407 129.143 359.413 114.361 371.504 113.83 371.173"></polyline>
            <path d="M123.923,376.85 L124.162,376.362 L126.337,377.426 L133.907,361.952 L131.781,360.912 L132.008,360.446 L144.377,366.499 L142.376,371.085 L142.009,370.907 C142.607,367.825 142.463,366.139 139.529,364.704 L136.572,363.256 L132.952,370.656 L134.1,371.218 C136.007,372.151 137.014,371.952 138.107,369.717 L138.221,369.485 L138.661,369.701 L135.359,376.449 L134.944,376.245 L135.092,375.943 C136.469,373.127 135.244,372.412 133.312,371.466 L132.702,371.167 L129.002,378.73 L132.546,380.465 C134.16,381.254 135.217,381.57 136.637,380.65 C137.702,379.959 138.554,379.021 139.407,378.083 L139.725,378.239 L136.756,383.131 L123.923,376.85" id="Fill-65" fill="#000206"></path>
            <path d="M151.982,385.707 C152.856,386.009 153.338,386.945 153.049,387.777 C152.76,388.609 151.802,389.044 150.928,388.741 C150.054,388.438 149.572,387.502 149.861,386.67 C150.15,385.838 151.107,385.403 151.982,385.707" id="Fill-66" fill="#000206"></path>
            <path d="M174.356,394.481 L176.91,395.032 L176.794,395.564 L168.496,393.774 L168.612,393.242 L171.297,393.822 L174.93,376.988 L173.149,376.603 C170.675,376.07 169.376,377.83 168.144,380.319 L167.896,380.822 L167.417,380.718 L168.87,375.15 L184.109,378.438 L183.322,384.149 L182.896,384.057 L182.83,383.46 C182.454,380.173 182.032,378.519 179.319,377.934 L177.989,377.647 L174.356,394.481" id="Fill-67" fill="#000206"></path>
            <path d="M187.978,392.909 C188.001,393.693 188.042,395.834 190.412,396.953 C190.698,397.087 191.246,397.33 192.031,397.416 C193.032,397.524 195.752,397.429 196.716,394.616 C197.195,393.234 197.478,390.893 197.632,389.476 C197.792,388.008 197.922,386.563 197.944,385.106 C197.973,383.832 197.889,382.598 196.992,381.536 C195.973,380.331 194.415,380.057 193.902,380 C193.306,379.936 190.632,379.853 189.473,382.203 C188.947,383.266 188.608,385.367 188.29,388.277 C188.122,389.823 187.954,391.368 187.978,392.909 Z M186.972,382.295 C187.722,381.439 190.163,378.89 194.004,379.308 C196.168,379.543 197.937,380.649 199.262,382.304 C201.627,385.22 201.399,388.323 201.258,389.611 C201.143,390.666 200.833,393.004 198.927,395.168 C198.177,396.026 195.715,398.52 191.928,398.108 C190.602,397.963 188.339,397.378 186.457,394.802 C185.55,393.582 184.284,391.385 184.674,387.805 C184.787,386.775 185.121,384.465 186.972,382.295 Z" id="Fill-68" fill="#000206"></path>
            <polyline id="Fill-69" fill="#000206" points="223.029 398.233 225.586 398.193 225.595 398.737 217.651 398.862 217.642 398.318 220.118 398.279 219.863 381.593 214.604 398.91 213.869 398.921 207.915 381.573 208.174 398.466 210.65 398.427 210.659 398.971 205.245 399.056 205.236 398.512 207.495 398.477 207.231 381.247 204.864 381.285 204.856 380.766 210.841 380.672 215.373 394.103 219.411 380.538 225.124 380.448 225.132 380.966 222.765 381.003 223.029 398.233"></polyline>
            <path d="M239.927,393.874 C240.842,393.74 241.702,394.346 241.829,395.218 C241.957,396.09 241.309,396.918 240.394,397.053 C239.479,397.188 238.62,396.582 238.492,395.71 C238.364,394.838 239.012,394.01 239.927,393.874" id="Fill-70" fill="#000206"></path>
            <polyline id="Fill-71" fill="#000206" points="272.284 388.889 274.741 388.179 274.891 388.702 267.259 390.908 267.108 390.385 269.487 389.698 264.858 373.67 264.331 391.753 263.625 391.957 253.326 376.787 258.012 393.013 260.39 392.326 260.541 392.848 255.34 394.352 255.189 393.829 257.359 393.202 252.579 376.652 250.305 377.309 250.162 376.812 255.912 375.15 263.812 386.916 264.145 372.771 269.634 371.184 269.778 371.682 267.504 372.339 272.284 388.889"></polyline>
            <path d="M282.408,365.44 C282.597,365.894 284.405,369.8 284.405,369.8 L283.726,370.083 C283.396,369.576 283.077,369.091 282.616,368.694 C281.439,367.641 279.568,367.328 278.036,367.966 C276.102,368.774 275.144,370.718 275.882,372.488 C276.401,373.731 277.263,374.381 280.666,373.775 L281.71,373.592 C285.335,372.95 287.24,374.121 288.307,376.678 C288.447,377.013 288.766,377.919 288.854,378.977 C288.966,380.166 288.864,383.241 285.398,384.687 C283.288,385.568 281.628,385.053 280.816,384.803 L280.38,386.445 L279.802,386.686 C279.802,386.686 277.816,382.349 277.476,381.536 L278.204,381.232 C278.68,382.016 279.749,383.873 282.358,384.328 C283.727,384.571 284.756,384.141 285.159,383.973 C285.384,383.878 285.937,383.648 286.485,383.195 C287.254,382.565 288.422,380.982 287.464,378.687 C287.355,378.424 287.076,377.754 286.404,377.277 C285.291,376.45 283.907,376.663 282.657,376.847 L280.548,377.166 C279.212,377.358 278.139,377.329 277.016,376.759 C275.723,376.063 275.109,374.663 275.039,374.496 C273.912,371.793 274.848,368.595 277.862,367.337 C278.615,367.023 279.745,366.692 281.556,367.002 L282.056,365.586 L282.408,365.44" id="Fill-72" fill="#000206"></path>
            <path d="M301.788,364.631 C300.445,366.972 300.199,367.821 300.915,368.992 C301.578,370.075 303.22,371.195 304.892,371.842 C306.289,372.353 307.409,372.306 308.384,371.709 C309.335,371.126 309.917,370.253 310.366,368.795 L301.788,364.631 Z M303.235,357.611 C302.356,356.174 301.31,355.874 299.987,356.683 C298.803,357.408 298.409,358.378 298.936,359.24 C299.274,359.792 299.935,360.299 301.169,360.91 L303.164,361.875 C304.06,360.264 304.208,359.202 303.235,357.611 Z M311.927,357.271 L312.21,357.735 L310.192,358.971 C311.551,361.297 312.024,363.529 311.71,365.937 L315.415,367.769 L317.481,366.505 L317.765,366.969 L312.822,369.995 L310.937,369.053 C310.239,371.09 309.321,372.563 307.302,373.799 C304.494,375.518 301.413,374.914 299.844,372.35 C298.505,370.164 298.985,368.079 301.266,364.404 L299.743,363.635 C298.457,362.995 297.784,362.466 297.324,361.714 C296.255,359.969 297.23,357.703 299.69,356.197 C301.988,354.791 304.058,354.89 305.018,356.458 C305.91,357.916 305.515,359.252 303.626,362.109 L311.102,365.672 C311.293,363.065 310.906,361.753 309.588,359.34 L307.383,360.69 L307.1,360.226 L311.927,357.271 Z" id="Fill-73" fill="#000206"></path>
            <path d="M331.677,355.41 L333.537,353.815 L333.89,354.228 L327.899,359.366 L327.544,358.953 L329.404,357.358 L318.192,344.279 L316.311,345.89 L315.974,345.497 L326.511,336.462 L330.093,340.181 L329.763,340.464 C329.502,340.245 327.771,338.726 325.975,338.764 C324.692,338.773 324.079,339.229 322.881,340.257 L320.464,342.33 L325.826,348.584 L327.479,347.167 C329.09,345.786 328.973,344.896 327.186,342.811 L327.579,342.474 L332.434,348.139 L332.041,348.476 C330.407,346.568 329.317,346.342 327.684,347.742 L326.197,349.017 L331.677,355.41" id="Fill-74" fill="#000206"></path>
            <path d="M338.47,336.008 C339.217,335.216 340.206,334.13 340.389,333.068 C340.609,331.817 339.834,330.674 339.005,329.892 C336.405,327.439 334.442,329.066 333.284,330.293 L332.014,331.639 L337.611,336.918 L338.47,336.008 Z M344.545,343.423 L346.207,341.662 L346.603,342.035 L341.168,347.793 L340.773,347.42 L342.454,345.639 L329.922,333.818 L328.185,335.659 L327.808,335.303 L333.243,329.544 C334.663,328.04 336.288,326.393 338.445,326.296 C339.89,326.238 340.719,326.945 341.115,327.318 C343.922,329.966 340.863,334.077 340.322,334.65 C341.312,333.751 343.259,332.707 345.156,333.076 C346.246,333.28 346.829,333.568 348.11,334.777 L349.089,335.702 C350.107,336.662 350.858,336.771 351.455,336.138 C351.736,335.841 351.884,335.419 352.033,335.111 L352.522,335.31 C352.393,335.9 351.909,336.64 351.479,337.095 C350.265,338.381 348.858,338.438 348.239,338.377 C346.943,338.241 345.963,337.428 345.078,336.593 C344.757,336.291 343.534,335.286 342.969,335.015 C341.145,334.118 339.856,335.446 338.679,336.692 L338.081,337.326 L344.545,343.423 Z" id="Fill-75" fill="#000206"></path>
            <polyline id="Fill-76" fill="#000206" points="357.768 328.095 359.243 326.208 359.671 326.543 354.795 332.783 354.367 332.448 355.825 330.582 342.247 319.979 340.789 321.843 340.381 321.525 345.257 315.287 345.665 315.605 344.191 317.492 357.768 328.095"></polyline>
            <path d="M362.346,323.035 L361.889,322.74 L363.198,320.703 L348.707,311.388 L347.428,313.379 L346.993,313.099 L354.435,301.518 L358.758,304.038 L358.538,304.381 C355.547,303.429 353.856,303.377 352.091,306.124 L350.311,308.893 L357.24,313.347 L357.931,312.272 C359.079,310.487 358.997,309.463 356.906,308.119 L356.688,307.979 L356.953,307.567 L363.271,311.629 L363.021,312.018 L362.738,311.836 C360.101,310.141 359.249,311.276 358.087,313.083 L357.719,313.656 L364.801,318.208 L366.934,314.889 C367.905,313.378 368.34,312.366 367.591,310.848 C367.029,309.71 366.196,308.754 365.364,307.799 L365.554,307.501 L370.069,311.018 L362.346,323.035" id="Fill-77" fill="#000206"></path>
            <polyline id="Fill-78" fill="#000206" points="379.131 293.162 358.563 296.334 373.528 303.542 374.625 301.262 375.116 301.499 372.636 306.648 372.146 306.412 373.22 304.18 357.695 296.702 356.656 298.86 356.189 298.635 358.811 293.191 374.112 290.924 363.045 285.594 362.053 287.654 361.586 287.429 363.794 282.843 364.262 283.068 363.34 284.981 379.356 292.696 379.131 293.162"></polyline>
            <path d="M383.067,281.283 L383.538,279.833 C384.314,277.453 384.958,274.886 382.798,273.152 C381.744,272.292 380.176,271.667 377.418,270.768 C374.561,269.837 372.565,269.359 371.239,269.584 C368.816,269.998 367.976,272.243 367.344,274.183 L366.763,275.969 L383.067,281.283 Z M365.746,278.929 L365.038,281.103 L364.545,280.943 L366.66,274.447 C367.603,271.548 368.304,270.231 369.555,269.065 C370.434,268.207 373.604,265.748 378.505,267.344 C381.904,268.452 383.581,270.831 384.431,272.739 C385.467,275.081 384.83,277.707 384.206,279.622 L381.89,286.739 L381.373,286.57 L382.122,284.266 L365.746,278.929 Z" id="Fill-79" fill="#000206"></path>
            <path d="M372.312,250.695 C372.794,250.791 377.046,251.46 377.046,251.46 L376.904,252.182 C376.298,252.173 375.718,252.17 375.132,252.333 C373.603,252.724 372.301,254.105 371.981,255.734 C371.577,257.79 372.661,259.667 374.541,260.038 C375.864,260.297 376.883,259.944 378.272,256.778 L378.7,255.808 C380.181,252.439 382.212,251.507 384.932,252.042 C385.288,252.113 386.218,252.351 387.147,252.867 C388.197,253.434 390.696,255.23 389.971,258.915 C389.531,261.158 388.18,262.251 387.52,262.787 L388.643,264.062 L388.522,264.676 C388.522,264.676 383.813,263.916 382.949,263.746 L383.101,262.971 C384.017,263.012 386.154,263.156 387.983,261.242 C388.946,260.239 389.161,259.143 389.245,258.716 C389.291,258.476 389.408,257.888 389.335,257.181 C389.24,256.191 388.574,254.34 386.133,253.86 C385.853,253.805 385.141,253.665 384.371,253.957 C383.065,254.421 382.472,255.691 381.931,256.833 L381.024,258.762 C380.441,259.979 379.82,260.855 378.722,261.471 C377.425,262.159 375.92,261.89 375.742,261.855 C372.87,261.29 370.732,258.733 371.362,255.528 C371.519,254.727 371.871,253.604 373.137,252.272 L372.238,251.069 L372.312,250.695" id="Fill-80" fill="#000206"></path>
            <path d="M416.474,217.446 C416.474,330.067 325.176,421.366 212.555,421.366 C99.933,421.366 8.635,330.067 8.635,217.446 C8.635,104.824 99.933,13.526 212.555,13.526 C325.176,13.526 416.474,104.824 416.474,217.446 Z" id="Stroke-81" stroke="#000206"></path>
        </g>
    </g>
</svg>